<svg xmlns="http://www.w3.org/2000/svg" width="3070" height="1180" viewBox="0 0 3070 1180" version="1.1">
	<path d="M 816.783 0.550 C 816.431 0.902, 811.048 1.581, 804.821 2.057 C 792.523 2.998, 786.927 3.888, 763.500 8.624 C 755.211 10.299, 750.658 11.324, 744.250 12.954 C 742.188 13.479, 738.700 14.344, 736.500 14.875 C 734.300 15.407, 729.125 16.742, 725 17.842 C 720.875 18.943, 714.800 20.562, 711.500 21.440 C 708.200 22.319, 704.375 23.425, 703 23.898 C 701.625 24.371, 697.125 25.783, 693 27.036 C 682.267 30.294, 649.916 40.905, 647.250 42.041 C 639.955 45.150, 624.580 51.011, 623.739 51.005 C 623.321 51.002, 621.071 51.847, 618.739 52.882 C 616.408 53.917, 612.925 55.312, 611 55.983 C 609.075 56.653, 606.375 57.667, 605 58.235 C 603.625 58.803, 601.600 59.612, 600.500 60.032 C 599.400 60.452, 596.925 61.482, 595 62.320 C 593.075 63.158, 589.025 64.814, 586 66 C 582.975 67.186, 578.925 68.842, 577 69.680 C 575.075 70.518, 572.600 71.586, 571.500 72.054 C 570.400 72.522, 565.518 74.726, 560.651 76.952 C 555.784 79.178, 551.623 81, 551.405 81 C 551.187 81, 547.599 82.575, 543.431 84.500 C 539.264 86.425, 535.681 88, 535.469 88 C 535.257 88, 527.594 91.600, 518.438 96 C 509.283 100.400, 501.598 104, 501.360 104 C 499.975 104, 421.984 143.537, 418.500 146.006 C 417.950 146.395, 413 149.092, 407.500 151.999 C 402 154.905, 395.025 158.740, 392 160.521 C 387.342 163.263, 376.726 169.326, 361 178.225 C 352.428 183.076, 323.469 200.764, 313 207.543 C 306.675 211.639, 300.825 215.330, 300 215.745 C 297.496 217.005, 271.016 234.529, 255.644 245.098 C 251.323 248.069, 246.761 251.175, 245.507 252 C 242.292 254.115, 230.261 262.605, 225.500 266.117 C 220.691 269.666, 215.736 273.163, 210.982 276.365 C 209.048 277.669, 206.855 279.470, 206.110 280.367 C 205.365 281.265, 204.219 282, 203.565 282 C 202.910 282, 201.081 283.350, 199.500 285 C 197.919 286.650, 196.202 288, 195.684 288 C 195.166 288, 193.038 289.462, 190.955 291.250 C 188.872 293.038, 185.050 296.075, 182.462 298 C 179.874 299.925, 175.673 303.172, 173.128 305.215 C 170.583 307.257, 166.475 310.541, 164 312.511 C 155.164 319.544, 146.621 326.577, 140.934 331.500 C 137.758 334.250, 131.222 339.875, 126.411 344 C 114.770 353.982, 84.108 382.864, 76.541 390.976 C 62.030 406.534, 56.186 413.037, 51.500 418.845 C 42.272 430.281, 39.514 433.829, 37 437.493 C 35.625 439.498, 33.487 442.409, 32.250 443.963 C 31.012 445.517, 30 447.039, 30 447.344 C 30 447.650, 28.650 449.900, 27 452.345 C 25.350 454.790, 24 457.139, 24 457.566 C 24 457.993, 23.365 459.053, 22.590 459.921 C 20.529 462.227, 10.012 483.230, 10.005 485.050 C 10.002 485.902, 9.591 487.027, 9.091 487.550 C 7.783 488.918, 3.290 502.705, 2.427 508 C 1.085 516.235, 0.860 518.431, 0.327 528.493 C 0.008 534.519, 0.267 540.673, 0.981 543.993 C 1.632 547.022, 2.598 551.469, 3.128 553.875 C 4.294 559.170, 10.368 572.231, 12.479 573.983 C 13.316 574.677, 14 575.761, 14 576.392 C 14 578.429, 32.298 595.692, 39 599.978 C 55.603 610.597, 75.024 617.140, 103.500 621.711 C 117.102 623.894, 179.330 624.201, 204 622.207 C 234.322 619.755, 253.184 618.036, 272 616.007 C 276.675 615.503, 285.225 614.603, 291 614.007 C 296.775 613.410, 305.100 612.502, 309.500 611.988 C 313.900 611.474, 321.775 610.579, 327 609.999 C 332.225 609.420, 340.100 608.529, 344.500 608.020 C 348.900 607.511, 357 606.602, 362.500 606 C 368 605.398, 376.100 604.498, 380.500 604 C 392.468 602.645, 406.189 601.207, 418.500 600.017 C 424.550 599.432, 433.775 598.535, 439 598.024 C 444.225 597.513, 454.125 596.608, 461 596.012 C 467.875 595.415, 478.225 594.503, 484 593.984 C 501.702 592.392, 519.582 591.135, 540.500 590.013 C 551.500 589.423, 567.475 588.488, 576 587.937 C 596.136 586.634, 681.721 586.679, 698.500 588 C 723.401 589.962, 736.546 591.137, 743.500 592.023 C 747.350 592.514, 754.775 593.411, 760 594.016 C 775.094 595.765, 798.300 599.631, 811 602.512 C 815.208 603.467, 816.030 603.927, 814.500 604.471 C 810.328 605.953, 807.543 607.289, 771 625.334 C 750.375 635.518, 725.400 648.321, 715.500 653.785 C 705.600 659.248, 694.800 665.201, 691.500 667.012 C 688.200 668.823, 684.306 671.137, 682.846 672.153 C 681.386 673.169, 679.951 674, 679.658 674 C 679.364 674, 673.862 677.150, 667.430 681 C 660.998 684.850, 655.533 688, 655.287 688 C 655.041 688, 652.513 689.499, 649.669 691.331 C 646.826 693.164, 641.125 696.620, 637 699.013 C 632.875 701.405, 627.367 704.856, 624.760 706.681 C 622.153 708.507, 619.773 710, 619.470 710 C 619.168 710, 612.808 714.050, 605.336 719 C 597.865 723.950, 591.428 728, 591.031 728 C 590.635 728, 589.495 728.900, 588.500 730 C 587.505 731.100, 586.340 732, 585.912 732 C 585.484 732, 580.311 735.262, 574.416 739.250 C 568.521 743.237, 562.914 746.968, 561.955 747.539 C 560.997 748.111, 559.442 749.218, 558.500 750 C 557.558 750.782, 555.977 751.889, 554.988 752.461 C 551.013 754.757, 538.982 763.317, 537.905 764.615 C 537.272 765.377, 536.347 766, 535.849 766 C 535.350 766, 532.043 768.250, 528.500 771 C 524.957 773.750, 521.769 776, 521.416 776 C 521.063 776, 519.363 777.167, 517.637 778.594 C 512.324 782.986, 491.983 798, 491.345 798 C 491.013 798, 489.054 799.462, 486.991 801.250 C 484.927 803.038, 480.902 806.300, 478.045 808.500 C 475.189 810.700, 470.922 814.187, 468.564 816.250 C 466.206 818.312, 463.923 820, 463.492 820 C 463.060 820, 460.553 821.913, 457.920 824.250 C 455.287 826.587, 450.587 830.525, 447.475 833 C 402.733 868.585, 347.252 922.860, 318.771 958.905 C 313.653 965.382, 309.930 970.277, 306.528 975 C 305.142 976.925, 302.993 979.903, 301.754 981.618 C 297.047 988.131, 290 998.923, 290 999.618 C 290 1000.017, 289.383 1001.053, 288.630 1001.921 C 286.406 1004.484, 275.277 1024.627, 272.565 1031 C 271.512 1033.475, 269.647 1037.782, 268.420 1040.571 C 261.974 1055.234, 258.738 1070.868, 258.605 1088 C 258.490 1102.791, 259.868 1111.432, 263.643 1119.596 C 264.939 1122.400, 266 1125.041, 266 1125.466 C 266 1127.559, 274.081 1139.225, 279.446 1144.879 C 304.983 1171.785, 344.164 1181.707, 411.049 1178.203 C 454.836 1175.910, 500.882 1166.570, 563 1147.380 C 588.532 1139.492, 649.566 1116.316, 670.777 1106.454 C 673.680 1105.104, 676.245 1104, 676.478 1104 C 676.932 1104, 697.104 1094.841, 713.500 1087.191 C 729.422 1079.762, 761.737 1063.119, 777 1054.487 C 781.125 1052.154, 786.300 1049.239, 788.500 1048.010 C 803.846 1039.433, 843.432 1014.835, 852.059 1008.515 C 855.052 1006.323, 858.233 1004.073, 859.128 1003.515 C 865.236 999.708, 874.985 992.833, 875.534 991.945 C 875.897 991.357, 877.163 990.453, 878.347 989.934 C 879.531 989.416, 882.525 987.423, 885 985.505 C 887.475 983.587, 890.625 981.231, 892 980.269 C 894.266 978.684, 899.126 974.763, 914.335 962.250 C 917.176 959.913, 920.658 957.213, 922.073 956.250 C 923.488 955.288, 928.153 951.350, 932.439 947.500 C 968.321 915.267, 989.682 892.326, 1007 867.426 C 1007.825 866.240, 1009.850 863.344, 1011.500 860.991 C 1013.150 858.639, 1014.955 855.991, 1015.512 855.107 C 1016.069 854.223, 1017.270 852.375, 1018.181 851 C 1031.082 831.532, 1045.061 797.827, 1050.235 773.711 C 1052.086 765.085, 1052.420 760.396, 1052.391 743.500 C 1052.356 723.605, 1052.336 723.426, 1048.615 709.523 C 1045.032 696.134, 1039.002 681.742, 1033.104 672.500 C 1031.700 670.300, 1029.975 667.431, 1029.270 666.125 C 1027.667 663.153, 1018.766 651.631, 1011.227 642.767 C 1000.734 630.432, 979.424 613.702, 959.421 602.098 L 952.653 598.172 956.472 596.576 C 958.572 595.699, 962.138 594.352, 964.395 593.583 C 966.653 592.815, 971.875 590.851, 976 589.220 C 980.125 587.589, 987.550 584.876, 992.500 583.190 C 1018.456 574.350, 1034.266 569.085, 1041 567.040 C 1045.125 565.787, 1049.400 564.419, 1050.500 564 C 1051.600 563.581, 1055.875 562.230, 1060 560.998 C 1064.125 559.766, 1068.625 558.415, 1070 557.995 C 1072.313 557.289, 1074.735 556.636, 1084.750 554.021 C 1086.813 553.482, 1091.650 552.197, 1095.500 551.164 C 1099.350 550.132, 1104.975 548.751, 1108 548.095 C 1114.993 546.578, 1120.317 545.406, 1126 544.130 C 1130.394 543.143, 1131.648 542.906, 1143 540.918 C 1173.777 535.529, 1208.188 533.545, 1226.500 536.105 C 1233.423 537.073, 1237.645 537.860, 1251 540.673 C 1252.375 540.962, 1257.667 543.192, 1262.760 545.627 C 1280.560 554.138, 1292.477 568.344, 1298.303 588.001 C 1303.231 604.628, 1303.491 606.659, 1303.479 628.500 C 1303.466 650.320, 1302.641 658.508, 1298.341 679.500 C 1296.989 686.100, 1295.753 692.443, 1295.596 693.596 C 1295.152 696.837, 1294.554 697.436, 1285.747 703.463 C 1274.308 711.290, 1270.825 713.826, 1268.436 716.065 C 1267.300 717.129, 1266.068 718, 1265.697 718 C 1265.326 718, 1262.290 720.138, 1258.950 722.750 C 1246.946 732.140, 1244.462 734.042, 1241.963 735.758 C 1238.175 738.360, 1232.355 742.953, 1226.451 748 C 1223.556 750.475, 1217.940 755.200, 1213.970 758.500 C 1198.842 771.076, 1196.186 773.356, 1185.104 783.287 C 1170.379 796.484, 1115.869 850.860, 1105.500 862.698 C 1101.100 867.721, 1095.025 874.845, 1092 878.530 C 1088.975 882.215, 1084.678 887.315, 1082.450 889.865 C 1080.223 892.414, 1077.649 895.625, 1076.731 897 C 1075.813 898.375, 1073.709 901.300, 1072.055 903.500 C 1068.799 907.833, 1064.390 913.994, 1062 917.552 C 1061.175 918.780, 1059.037 921.881, 1057.250 924.443 C 1055.463 927.004, 1054 929.280, 1054 929.500 C 1054 929.720, 1052.650 931.900, 1051 934.345 C 1049.350 936.790, 1048 939.042, 1048 939.351 C 1048 939.659, 1046.867 941.581, 1045.481 943.623 C 1041.126 950.040, 1031.367 971.059, 1027.571 982.198 C 1021.685 999.468, 1019.660 1015.009, 1022.059 1024.500 C 1022.615 1026.700, 1023.221 1029.400, 1023.406 1030.500 C 1024.509 1037.057, 1036.174 1054, 1039.586 1054 C 1040.229 1054, 1041.338 1054.703, 1042.051 1055.562 C 1044.397 1058.389, 1055.366 1062.720, 1062.964 1063.820 C 1079.361 1066.193, 1102.284 1059.742, 1121 1047.487 C 1123.475 1045.867, 1126.223 1044.082, 1127.107 1043.520 C 1130.674 1041.255, 1136.773 1036.799, 1141.500 1033.003 C 1144.250 1030.795, 1148.750 1027.239, 1151.500 1025.100 C 1160.813 1017.859, 1191.216 985.723, 1205 968.551 C 1207.475 965.467, 1211.300 960.731, 1213.500 958.025 C 1215.700 955.320, 1218.850 951.268, 1220.500 949.020 C 1222.150 946.773, 1224.513 943.647, 1225.750 942.073 C 1226.987 940.499, 1228 938.886, 1228 938.488 C 1228 938.090, 1229.237 936.259, 1230.750 934.419 C 1235.811 928.262, 1238 925.191, 1238 924.247 C 1238 923.732, 1238.900 922.495, 1240 921.500 C 1241.100 920.505, 1242 919.327, 1242 918.884 C 1242 918.440, 1244.383 914.572, 1247.296 910.289 C 1252.877 902.081, 1262.536 886.578, 1266.791 879 C 1268.181 876.525, 1270.371 872.821, 1271.659 870.770 C 1272.947 868.718, 1274 866.828, 1274 866.570 C 1274 866.312, 1275.350 864.100, 1277 861.655 C 1278.650 859.210, 1280 856.861, 1280 856.434 C 1280 856.007, 1280.640 854.947, 1281.423 854.079 C 1284.102 851.107, 1313.823 790.515, 1318.005 779.500 C 1320.302 773.450, 1322.572 767.600, 1323.050 766.500 C 1325.058 761.874, 1330.034 747.998, 1332.014 741.500 C 1333.188 737.650, 1334.541 733.600, 1335.022 732.500 C 1335.503 731.400, 1336.038 729.605, 1336.210 728.511 C 1336.418 727.190, 1343.064 722.156, 1356.013 713.511 C 1379.428 697.879, 1423.425 670, 1424.678 670 C 1424.971 670, 1427.210 668.650, 1429.655 667 C 1432.100 665.350, 1434.334 664, 1434.620 664 C 1434.906 664, 1437.028 662.763, 1439.336 661.250 C 1444.293 658.002, 1445.077 657.520, 1455.500 651.322 C 1459.900 648.706, 1465.525 645.477, 1468 644.147 C 1470.475 642.817, 1473.694 640.890, 1475.154 639.864 C 1476.614 638.839, 1478.069 638, 1478.387 638 C 1478.705 638, 1481.906 636.200, 1485.500 634 C 1489.094 631.800, 1492.232 630, 1492.474 630 C 1492.715 630, 1495.212 628.644, 1498.024 626.986 C 1500.835 625.329, 1508.617 620.993, 1515.318 617.352 C 1522.018 613.711, 1529.975 609.365, 1533 607.695 C 1540.899 603.335, 1595.643 576, 1596.477 576 C 1596.862 576, 1600.174 574.608, 1603.838 572.907 C 1607.502 571.206, 1616.800 567.349, 1624.500 564.335 C 1632.200 561.321, 1639.281 558.438, 1640.236 557.928 C 1641.191 557.417, 1642.852 557, 1643.927 557 C 1645.002 557, 1646.160 556.550, 1646.500 556 C 1646.840 555.450, 1648.190 555, 1649.500 555 C 1650.810 555, 1652.160 554.550, 1652.500 554 C 1652.840 553.450, 1654.190 553, 1655.500 553 C 1656.810 553, 1658.128 552.602, 1658.429 552.115 C 1658.729 551.629, 1660.219 551.004, 1661.738 550.728 C 1663.257 550.451, 1666.975 549.555, 1670 548.736 C 1673.025 547.917, 1677.500 546.947, 1679.944 546.581 C 1684.149 545.950, 1684.305 546.011, 1682.846 547.707 C 1681.998 548.693, 1680.993 550.175, 1680.613 551 C 1679.340 553.762, 1672.466 564.251, 1665.027 574.785 C 1663.362 577.142, 1662 579.242, 1662 579.452 C 1662 579.661, 1659.862 583.133, 1657.250 587.166 C 1654.638 591.200, 1651.961 595.400, 1651.302 596.500 C 1650.643 597.600, 1648.242 601.567, 1645.968 605.317 C 1641.465 612.738, 1633.004 629.251, 1632.994 630.638 C 1632.990 631.112, 1632.312 632.795, 1631.487 634.377 C 1624.279 648.199, 1622.009 674.782, 1626.910 688 C 1628.235 691.575, 1629.923 695.210, 1630.660 696.079 C 1631.397 696.947, 1632 697.955, 1632 698.318 C 1632 700.234, 1641.846 711.500, 1646.839 715.297 C 1653.312 720.220, 1663.814 725.670, 1669.630 727.124 C 1685.722 731.148, 1686.740 731.262, 1707 731.298 C 1726.662 731.334, 1731.685 730.882, 1754 727.067 C 1760.251 725.998, 1777.751 722.332, 1783 720.992 C 1784.925 720.500, 1788.525 719.641, 1791 719.082 C 1793.475 718.523, 1802.475 716.284, 1811 714.105 C 1819.525 711.927, 1841.800 706.261, 1860.500 701.514 C 1879.200 696.767, 1900.575 691.300, 1908 689.365 C 1933.777 682.648, 1952.522 677.897, 1956.500 677.072 C 1958.700 676.616, 1968.600 674.337, 1978.500 672.006 C 1994.575 668.222, 2006.271 665.609, 2018.500 663.072 C 2020.700 662.616, 2033.525 659.975, 2047 657.204 C 2133.409 639.431, 2224.569 631.831, 2295.500 636.486 C 2343.242 639.619, 2365.424 642.945, 2429 656.504 C 2436.103 658.019, 2474.582 667.314, 2487.500 670.636 C 2494.718 672.492, 2496.447 672.893, 2515 677.007 C 2522.975 678.775, 2533.325 681.078, 2538 682.123 C 2551.554 685.155, 2575.961 690, 2582.497 690.956 C 2601.710 693.766, 2610.462 694.982, 2618.500 695.958 C 2623.450 696.560, 2629.300 697.290, 2631.500 697.583 C 2641.178 698.867, 2684.073 700.979, 2700.500 700.980 C 2722.747 700.980, 2767.253 698.218, 2788.500 695.517 C 2834.443 689.678, 2899.600 676.732, 2910.500 671.277 C 2913.980 669.536, 2920 664.058, 2920 662.633 C 2920 662.096, 2920.740 660.840, 2921.644 659.841 C 2923.974 657.267, 2923.965 645.637, 2921.630 641.197 C 2919.402 636.958, 2913.025 630.581, 2908.861 628.428 C 2904.439 626.142, 2895.257 626.322, 2886 628.878 C 2865.581 634.516, 2804.938 644.928, 2778 647.422 C 2774.425 647.752, 2763.625 648.752, 2754 649.642 C 2731.926 651.683, 2671.719 652.012, 2651.500 650.200 C 2610.726 646.548, 2576.342 641.366, 2547.500 634.526 C 2544.200 633.744, 2534.075 631.450, 2525 629.430 C 2515.925 627.410, 2506.925 625.384, 2505 624.927 C 2503.075 624.471, 2499.250 623.620, 2496.500 623.036 C 2493.750 622.452, 2486.887 620.855, 2481.250 619.487 C 2453.423 612.736, 2442.280 610.161, 2431.500 607.993 C 2428.200 607.329, 2424.375 606.440, 2423 606.017 C 2419.538 604.952, 2412.414 603.428, 2399.500 600.989 C 2373.331 596.046, 2371.833 595.805, 2343.750 592.024 C 2335.031 590.850, 2320.663 589.360, 2304.816 587.987 C 2289.565 586.665, 2217.145 586.663, 2197.121 587.983 C 2159.670 590.452, 2131.758 593.545, 2097.250 599.047 C 2055.519 605.701, 2040.397 608.505, 2005.500 616.059 C 2000.550 617.131, 1992.012 618.954, 1986.526 620.110 C 1981.041 621.267, 1973.391 623.064, 1969.526 624.103 C 1965.662 625.142, 1957.550 627.152, 1951.500 628.568 C 1945.450 629.985, 1929.025 634.030, 1915 637.558 C 1891.131 643.562, 1879.356 646.611, 1851 654.132 C 1759.878 678.300, 1715.202 686.884, 1695.295 684.047 C 1688.356 683.058, 1680.835 680.712, 1678.271 678.736 C 1673.526 675.082, 1673.317 663.477, 1677.771 651 C 1678.066 650.175, 1678.350 649.050, 1678.403 648.500 C 1678.539 647.100, 1686.087 631.824, 1687.545 630 C 1688.204 629.175, 1690.209 625.800, 1692 622.500 C 1693.791 619.200, 1695.874 615.790, 1696.628 614.921 C 1697.383 614.053, 1698 612.885, 1698 612.326 C 1698 611.767, 1698.900 610.495, 1700 609.500 C 1701.100 608.505, 1702 607.155, 1702 606.500 C 1702 605.845, 1702.900 604.495, 1704 603.500 C 1705.100 602.505, 1706 601.332, 1706 600.895 C 1706 600.458, 1707.350 598.100, 1709 595.655 C 1710.650 593.210, 1712 590.782, 1712 590.260 C 1712 589.737, 1712.900 588.495, 1714 587.500 C 1715.100 586.505, 1716 585.305, 1716 584.835 C 1716 584.364, 1717.521 581.816, 1719.380 579.171 C 1722.497 574.736, 1732.356 556.140, 1734.050 551.500 C 1737.312 542.562, 1737.783 535.055, 1735.597 526.799 C 1732.228 514.073, 1722.265 503.914, 1709.500 500.192 C 1696.634 496.440, 1676.746 497.509, 1656.500 503.040 C 1654.300 503.641, 1650.925 504.494, 1649 504.935 C 1645.317 505.779, 1618.930 514.450, 1615.500 515.943 C 1614.400 516.422, 1611.475 517.568, 1609 518.489 C 1606.525 519.410, 1602.925 520.848, 1601 521.684 C 1599.075 522.520, 1596.487 523.608, 1595.250 524.102 C 1594.013 524.596, 1591.987 525.404, 1590.750 525.898 C 1573.317 532.856, 1522.692 557.616, 1499.500 570.527 C 1488.936 576.408, 1456.686 594.785, 1452.165 597.500 C 1451.249 598.050, 1447.800 600.075, 1444.500 602 C 1437.186 606.266, 1436.606 606.615, 1429.500 611 C 1426.381 612.925, 1423.080 614.959, 1422.164 615.520 C 1421.249 616.082, 1418.683 617.657, 1416.462 619.020 C 1410.461 622.706, 1409.385 623.363, 1398.500 630 C 1385.987 637.629, 1386.658 637.212, 1374.396 645 C 1363.992 651.608, 1354.935 657.260, 1353.963 657.753 C 1353.667 657.902, 1353.442 646.432, 1353.463 632.262 C 1353.515 595.982, 1350.863 582.163, 1339.208 558 C 1328.026 534.818, 1314.503 520.190, 1291.500 506.394 C 1277.112 497.764, 1255.857 491.061, 1233 487.945 C 1223.163 486.605, 1177.439 487.202, 1164 488.847 C 1145.350 491.130, 1125.926 494.330, 1115.500 496.837 C 1113.300 497.365, 1109.025 498.338, 1106 498.998 C 1087.524 503.028, 1079.284 505.065, 1065 509.136 C 1063.075 509.684, 1059.925 510.495, 1058 510.938 C 1056.075 511.381, 1052.250 512.479, 1049.500 513.379 C 1046.750 514.279, 1043.150 515.417, 1041.500 515.908 C 1031.256 518.954, 1017.201 523.323, 1015.500 523.989 C 1014.400 524.420, 1011.475 525.352, 1009 526.060 C 1006.525 526.768, 1004.073 527.720, 1003.550 528.174 C 1003.028 528.628, 1001.655 529, 1000.500 529 C 999.345 529, 997.972 529.358, 997.450 529.796 C 996.927 530.234, 994.700 531.166, 992.500 531.867 C 990.300 532.569, 986.138 534.011, 983.250 535.071 C 980.362 536.132, 975.413 537.944, 972.250 539.097 C 969.087 540.251, 965.600 541.556, 964.500 541.997 C 963.400 542.437, 960.925 543.339, 959 544 C 954.766 545.454, 951.099 546.929, 948.764 548.117 C 947.809 548.603, 946.566 549, 946.003 549 C 945.439 549, 942.846 549.945, 940.239 551.100 C 934.554 553.618, 932.869 554.305, 927 556.489 C 924.525 557.410, 920.925 558.856, 919 559.701 C 917.075 560.546, 914.150 561.809, 912.500 562.507 C 910.850 563.206, 905.126 565.686, 899.781 568.018 C 889.217 572.627, 890.722 572.557, 878.500 569.009 C 875.120 568.028, 863.823 565, 852.250 561.973 C 843.327 559.640, 841.157 559.161, 823.500 555.640 C 816.350 554.214, 808.475 552.623, 806 552.105 C 787.963 548.331, 766.145 545.353, 732.500 542.073 C 698.751 538.783, 585.917 538.081, 541 540.881 C 507.670 542.959, 467.505 546.149, 438.500 549.021 C 432.450 549.620, 423.225 550.507, 418 550.991 C 408.804 551.845, 397.221 553.044, 378.500 555.081 C 373.550 555.619, 365.450 556.479, 360.500 556.991 C 355.550 557.502, 347.675 558.377, 343 558.934 C 332.403 560.198, 312.021 562.517, 286 565.422 C 278.575 566.251, 268.450 567.383, 263.500 567.939 C 250.489 569.398, 236.285 570.771, 222 571.950 C 215.125 572.517, 203.875 573.502, 197 574.138 C 176.812 576.006, 118.713 575.728, 106 573.702 C 61.601 566.629, 45.641 551.160, 51.043 520.434 C 52.539 511.926, 54.928 505.624, 62.201 491 C 68.173 478.993, 77.428 464.972, 86.749 453.812 C 89.362 450.684, 94.043 445.059, 97.151 441.312 C 106.659 429.850, 155.466 382.443, 167.997 372.500 C 170.076 370.850, 175.765 366.123, 180.639 361.996 C 189.318 354.646, 193.332 351.417, 209.500 338.781 C 219.866 330.680, 241.083 314.870, 250.140 308.500 C 254.049 305.750, 258.656 302.375, 260.377 301 C 262.098 299.625, 264.247 298.050, 265.152 297.500 C 269.675 294.752, 291.766 279.482, 293.564 277.861 C 294.700 276.837, 296.093 276, 296.659 276 C 297.226 276, 298.505 275.100, 299.500 274 C 300.495 272.900, 301.645 272, 302.055 272 C 302.465 272, 308.372 268.288, 315.181 263.750 C 327.478 255.556, 333.387 251.781, 347.923 242.837 C 360.949 234.821, 383.342 221.314, 387 219.266 C 388.925 218.189, 395 214.700, 400.500 211.513 C 414.824 203.215, 431.150 194.311, 461 178.519 C 504.309 155.608, 588.200 116.467, 623 102.937 C 625.475 101.975, 630.986 99.807, 635.246 98.120 C 639.506 96.433, 646.256 93.944, 650.246 92.589 C 654.236 91.235, 664.025 87.811, 672 84.981 C 679.975 82.152, 687.400 79.611, 688.500 79.335 C 689.600 79.059, 691.400 78.467, 692.500 78.019 C 693.600 77.572, 699.225 75.773, 705 74.023 C 710.775 72.272, 716.625 70.478, 718 70.036 C 719.375 69.594, 722.525 68.678, 725 68 C 727.475 67.322, 730.625 66.406, 732 65.963 C 734.349 65.207, 747.581 61.987, 756.500 60 C 758.700 59.510, 764.325 58.219, 769 57.132 C 773.675 56.044, 780.425 54.635, 784 54.001 C 787.575 53.367, 792.525 52.465, 795 51.997 C 813.511 48.493, 842.295 46.553, 854.984 47.954 C 877.858 50.480, 889.590 56.479, 893.375 67.586 C 896.705 77.360, 895.172 89.272, 888.237 107.500 C 886.773 111.350, 884.782 115.850, 883.813 117.500 C 882.844 119.150, 881.188 122.075, 880.132 124 C 877.440 128.909, 866.339 145.363, 860.986 152.378 C 858.519 155.612, 855.502 159.662, 854.282 161.378 C 853.063 163.095, 849.238 167.742, 845.782 171.705 C 842.327 175.667, 836.280 182.642, 832.345 187.205 C 828.410 191.767, 810.407 210.125, 792.339 228 C 761.617 258.393, 747.528 271.654, 726.468 290 C 705.206 308.522, 703 311.411, 703 320.723 C 703 325.954, 704.934 329.857, 710.480 335.823 C 715.481 341.202, 719.620 343, 727 343 C 734.461 343, 737.973 341.442, 746.527 334.337 C 750.391 331.127, 757.141 325.605, 761.527 322.067 C 765.912 318.528, 772.475 312.903, 776.111 309.567 C 779.747 306.230, 789.422 297.434, 797.611 290.020 C 821.460 268.427, 872.472 216.745, 881 205.533 C 882.375 203.726, 886.200 198.977, 889.500 194.981 C 896.690 186.274, 899.413 182.685, 905.715 173.611 C 912.935 163.216, 915.208 159.659, 923.271 146.144 C 926.548 140.650, 933.029 128.229, 932.999 127.500 C 932.987 127.220, 933.697 125.305, 934.577 123.245 C 936.938 117.719, 940.104 107.793, 940.238 105.500 C 940.301 104.400, 940.683 103.050, 941.085 102.500 C 942.389 100.716, 945.002 83.173, 944.921 76.750 C 944.834 69.848, 942.921 57.588, 941.749 56.415 C 941.337 56.004, 941 54.836, 941 53.820 C 941 52.804, 940.550 51.079, 940 49.986 C 939.450 48.894, 938.596 47.180, 938.103 46.178 C 928.459 26.596, 912.712 13.146, 890.500 5.521 C 879.523 1.752, 870.018 0.697, 843.462 0.299 C 829.141 0.085, 817.136 0.197, 816.783 0.550 M 3030.984 612.878 C 3016.583 615.872, 3005 630.043, 3005 644.670 C 3005 648.909, 3005.531 652.313, 3006.382 653.527 C 3007.141 654.612, 3007.807 655.842, 3007.861 656.260 C 3008.158 658.562, 3011.378 663.093, 3015.254 666.667 C 3030.882 681.072, 3056.845 676.096, 3065.698 657 C 3069.129 649.599, 3069.297 638.726, 3066.094 631.467 C 3060.428 618.631, 3044.326 610.105, 3030.984 612.878 M 880.500 627.660 C 839.125 645.953, 773.696 677.607, 747 692.245 C 739.575 696.317, 728.775 702.201, 723 705.320 C 717.225 708.439, 710.025 712.393, 707 714.105 C 703.975 715.818, 699.112 718.548, 696.193 720.172 C 693.274 721.795, 685.849 726.159, 679.693 729.870 C 673.537 733.581, 667.825 736.933, 667 737.319 C 666.175 737.706, 664.150 738.910, 662.500 739.996 C 660.850 741.082, 658.600 742.434, 657.500 743 C 656.400 743.566, 654.311 744.811, 652.858 745.765 C 650.571 747.267, 642.377 752.353, 637.164 755.507 C 636.249 756.061, 632.125 758.702, 628 761.376 C 623.875 764.050, 618.925 767.253, 617 768.493 C 607.858 774.384, 592.859 784.413, 587 788.553 C 583.425 791.079, 578.741 794.350, 576.590 795.823 C 568.729 801.206, 564.185 804.366, 558.016 808.739 C 545.439 817.655, 517.831 838.296, 509.172 845.256 C 503.392 849.902, 494.766 856.680, 490.408 860 C 488.603 861.375, 483.906 865.200, 479.969 868.500 C 476.032 871.800, 470.644 876.300, 467.994 878.500 C 463.533 882.205, 457.589 887.335, 439.500 903.097 C 427.197 913.817, 385.247 955.849, 374.187 968.537 C 361.450 983.149, 352.175 994.685, 344.068 1006 C 325.093 1032.483, 311.846 1060.504, 308.883 1080.428 C 306.858 1094.046, 310.460 1107.346, 318.161 1114.681 C 333.437 1129.232, 377.735 1134.656, 427 1128.007 C 472.236 1121.902, 498.963 1116.185, 541.500 1103.512 C 553.706 1099.876, 582.797 1090.165, 586.500 1088.491 C 588.150 1087.745, 591.534 1086.470, 594.021 1085.657 C 596.507 1084.844, 603.932 1082.073, 610.521 1079.499 C 617.109 1076.925, 623.400 1074.470, 624.500 1074.043 C 627.257 1072.974, 630.779 1071.514, 635.500 1069.483 C 637.700 1068.537, 641.075 1067.085, 643 1066.257 C 644.925 1065.428, 649.284 1063.457, 652.687 1061.875 C 656.090 1060.294, 659.083 1059, 659.338 1059 C 659.593 1059, 663.559 1057.268, 668.151 1055.150 C 672.743 1053.033, 679.875 1049.778, 684 1047.918 C 692.375 1044.142, 735.461 1022.459, 744 1017.723 C 760.029 1008.834, 763.585 1006.803, 776.500 999.163 C 782.550 995.584, 790.514 990.708, 794.197 988.328 C 797.880 985.947, 801.298 984, 801.792 984 C 802.286 984, 803.505 983.100, 804.500 982 C 805.495 980.900, 806.677 980, 807.125 980 C 807.842 980, 836.047 961.258, 844.377 955.246 C 846.095 954.007, 849.075 951.856, 851 950.467 C 867.223 938.762, 877.032 930.926, 901.157 910.403 C 911.996 901.182, 946.204 866.946, 951.020 860.500 C 953.074 857.750, 955.935 854.409, 957.377 853.076 C 958.820 851.742, 960 850.192, 960 849.630 C 960 849.069, 961.182 847.376, 962.626 845.868 C 964.070 844.361, 965.758 842.254, 966.376 841.185 C 966.994 840.117, 969.750 835.926, 972.500 831.872 C 975.250 827.817, 977.843 823.825, 978.262 823 C 978.681 822.175, 979.887 820.150, 980.942 818.500 C 988.084 807.332, 996.262 788, 999.343 775 C 1002.518 761.600, 1003 757.560, 1003 744.330 C 1003 732.998, 1002.563 729.006, 1000.353 720.130 C 990.900 682.166, 959.096 652.044, 904.258 629.118 C 897.525 626.303, 891.225 624.028, 890.258 624.062 C 889.291 624.095, 884.900 625.715, 880.500 627.660 M 1255.500 786.025 C 1252.200 788.779, 1247.137 792.938, 1244.249 795.266 C 1224.555 811.146, 1206.313 827.802, 1181.554 852.510 C 1155.001 879.008, 1140.708 894.619, 1123.274 916.164 C 1121.198 918.730, 1118.002 922.679, 1116.171 924.941 C 1109.871 932.724, 1106 938.019, 1106 938.854 C 1106 939.314, 1105.100 940.505, 1104 941.500 C 1102.900 942.495, 1102 943.845, 1102 944.500 C 1102 945.155, 1101.100 946.505, 1100 947.500 C 1098.900 948.495, 1098 949.722, 1098 950.225 C 1098 950.728, 1096.718 953.021, 1095.150 955.320 C 1087.906 965.948, 1077.567 987.191, 1073.649 999.500 C 1071.334 1006.773, 1070.006 1016.368, 1071.210 1017.122 C 1074.265 1019.034, 1089.874 1012.188, 1100.998 1004.057 C 1116.419 992.784, 1146.438 964.023, 1159.876 947.646 C 1162.969 943.876, 1167.406 938.476, 1169.736 935.646 C 1172.065 932.816, 1174.990 929.081, 1176.236 927.348 C 1177.481 925.614, 1180.638 921.446, 1183.250 918.086 C 1185.862 914.727, 1188 911.745, 1188 911.460 C 1188 911.176, 1190.138 908.122, 1192.750 904.674 C 1195.362 901.227, 1197.950 897.686, 1198.500 896.805 C 1199.050 895.925, 1200.963 893.111, 1202.750 890.552 C 1204.537 887.993, 1206 885.620, 1206 885.279 C 1206 884.937, 1206.748 883.831, 1207.661 882.822 C 1208.575 881.812, 1209.812 880.128, 1210.411 879.079 C 1211.010 878.030, 1213.075 874.619, 1215 871.500 C 1216.925 868.381, 1218.959 865.080, 1219.520 864.164 C 1220.082 863.249, 1221.769 860.596, 1223.270 858.270 C 1224.772 855.943, 1226 853.797, 1226 853.500 C 1226 853.203, 1227.223 851.057, 1228.717 848.730 C 1230.211 846.404, 1232.180 843.150, 1233.091 841.500 C 1234.003 839.850, 1235.677 836.925, 1236.812 835 C 1241.104 827.722, 1259.768 790.943, 1263.833 781.753 C 1264.807 779.553, 1260.786 781.614, 1255.500 786.025" stroke="none" fill="#e8c46a" fill-rule="evenodd"/>
</svg>