<svg xmlns="http://www.w3.org/2000/svg" width="1354" height="1660" viewBox="0 0 1354 1660" version="1.1">
	<path d="M 566.757 1.577 C 566.440 1.894, 559.277 2.567, 550.840 3.073 C 530.319 4.303, 519.440 5.491, 497 8.949 C 493.425 9.500, 488.475 10.213, 486 10.532 C 483.525 10.852, 480.600 11.512, 479.500 12 C 478.400 12.488, 475.587 13.137, 473.250 13.443 C 463.599 14.708, 460.960 15.256, 460.435 16.106 C 460.131 16.598, 458.135 17, 456 17 C 453.865 17, 451.840 17.450, 451.500 18 C 451.160 18.550, 449.580 19, 447.988 19 C 446.396 19, 444.060 19.392, 442.797 19.872 C 440.502 20.743, 437.475 21.641, 429 23.962 C 426.525 24.640, 423.719 25.601, 422.764 26.097 C 421.809 26.594, 420.115 27, 419 27 C 417.885 27, 416.191 27.404, 415.236 27.897 C 414.281 28.391, 410.125 29.822, 406 31.077 C 401.875 32.333, 398.073 33.729, 397.550 34.180 C 397.028 34.631, 395.784 35, 394.786 35 C 393.789 35, 392.191 35.380, 391.236 35.844 C 390.281 36.308, 388.600 37.132, 387.500 37.676 C 386.400 38.219, 383.363 39.288, 380.750 40.050 C 378.137 40.813, 376 41.788, 376 42.218 C 376 42.648, 375.094 43, 373.986 43 C 372.879 43, 371.191 43.413, 370.236 43.918 C 365.984 46.167, 358.890 49, 357.511 49 C 356.680 49, 356 49.450, 356 50 C 356 50.550, 355.431 51, 354.735 51 C 353.553 51, 345.513 54.583, 336.655 59.058 C 334.541 60.126, 332.179 61, 331.405 61 C 330.632 61, 330 61.450, 330 62 C 330 62.550, 329.415 63, 328.699 63 C 326.860 63, 322.017 65.352, 322.008 66.250 C 322.004 66.662, 321.100 67, 320 67 C 318.900 67, 317.996 67.338, 317.992 67.750 C 317.988 68.162, 316.975 68.978, 315.742 69.561 C 309.791 72.379, 300.464 77.582, 300.167 78.250 C 299.983 78.662, 299.413 79, 298.899 79 C 298.384 79, 295.001 80.800, 291.380 83 C 287.758 85.200, 284.392 87, 283.898 87 C 283.404 87, 283 87.450, 283 88 C 283 88.550, 282.531 89, 281.958 89 C 281.385 89, 280.372 89.442, 279.708 89.982 C 279.044 90.522, 273.550 94.210, 267.500 98.178 C 261.450 102.145, 256.350 105.753, 256.167 106.196 C 255.983 106.638, 255.281 107, 254.605 107 C 253.930 107, 252.505 107.800, 251.439 108.777 C 250.372 109.755, 247.925 111.645, 246 112.979 C 244.075 114.313, 242.275 115.672, 242 116 C 241.725 116.328, 239.925 117.687, 238 119.020 C 236.075 120.353, 233.380 122.468, 232.010 123.722 C 230.641 124.975, 229.226 126, 228.866 126 C 228.506 126, 226.701 127.412, 224.856 129.137 C 223.010 130.863, 219.925 133.451, 218 134.887 C 216.075 136.324, 213.150 138.759, 211.500 140.299 C 209.850 141.838, 205.800 145.318, 202.500 148.031 C 191.425 157.138, 147.918 202.005, 140 212.486 C 138.625 214.306, 134.787 219.104, 131.471 223.148 C 128.155 227.191, 123.322 233.425, 120.730 237 C 118.139 240.575, 113.558 246.875, 110.551 251 C 107.545 255.125, 104.504 259.625, 103.794 261 C 103.084 262.375, 102.248 263.725, 101.936 264 C 100.918 264.896, 95 273.843, 95 274.485 C 95 274.829, 93.277 277.673, 91.170 280.805 C 89.064 283.937, 86.252 288.525, 84.920 291 C 83.589 293.475, 82.275 295.725, 82 296 C 81.725 296.275, 80.524 298.300, 79.332 300.500 C 78.140 302.700, 75.549 307.425, 73.574 311 C 68.261 320.618, 52.503 353.007, 49.977 359.500 C 49.549 360.600, 48.254 363.633, 47.100 366.239 C 45.945 368.846, 45 371.349, 45 371.801 C 45 372.254, 44.100 374.487, 43 376.764 C 41.900 379.041, 41 381.510, 41 382.252 C 41 382.993, 40.628 384.027, 40.174 384.550 C 39.720 385.072, 38.738 387.525, 37.994 390 C 37.249 392.475, 36.355 394.950, 36.006 395.500 C 35.658 396.050, 33.893 401.225, 32.083 407 C 30.274 412.775, 28.390 418.281, 27.897 419.236 C 27.404 420.191, 27 422.077, 27 423.427 C 27 424.777, 26.600 426.129, 26.110 426.432 C 25.621 426.734, 24.988 428.448, 24.704 430.241 C 24.419 432.033, 23.663 435.300, 23.023 437.500 C 22.384 439.700, 21.633 442.625, 21.355 444 C 21.077 445.375, 20.464 447.400, 19.993 448.500 C 19.138 450.497, 18.374 454.164, 17.338 461.256 C 17.036 463.322, 16.386 465.261, 15.894 465.565 C 15.402 465.869, 15 467.801, 15 469.859 C 15 471.917, 14.594 474.027, 14.097 474.550 C 13.600 475.072, 12.942 477.525, 12.634 480 C 12.326 482.475, 11.607 487.313, 11.037 490.750 C 6.250 519.601, 4.627 534.251, 2.811 565 C 1.278 590.957, 1.286 609.615, 2.839 633 C 5.242 669.188, 8.994 697.376, 15.019 724.500 C 15.630 727.250, 16.373 731.190, 16.670 733.256 C 16.968 735.322, 17.614 737.261, 18.106 737.565 C 18.598 737.869, 19 739.640, 19 741.500 C 19 743.360, 19.450 745.160, 20 745.500 C 20.550 745.840, 21 747.072, 21 748.238 C 21 749.404, 21.420 751.740, 21.932 753.429 C 22.445 755.118, 23.389 758.525, 24.030 761 C 24.671 763.475, 25.601 766.281, 26.097 767.236 C 26.594 768.191, 27 769.713, 27 770.618 C 27 772.488, 32.567 789.595, 34.035 792.236 C 34.566 793.191, 35 794.660, 35 795.500 C 35 796.340, 35.397 797.809, 35.883 798.764 C 37.047 801.051, 38.516 804.690, 40.016 809 C 41.649 813.691, 43.367 817.694, 51.811 836.484 C 65.204 866.285, 96.761 918.276, 109.298 931.194 C 109.995 931.912, 111.662 934.075, 113.001 936 C 119.350 945.124, 130.073 957.031, 149.500 976.526 C 164.449 991.528, 168.288 995.095, 177.234 1002.297 C 179.828 1004.385, 182.524 1006.663, 183.225 1007.359 C 183.926 1008.055, 189.225 1012.105, 195 1016.360 C 200.775 1020.615, 206.175 1024.640, 207 1025.305 C 207.825 1025.969, 212.100 1028.879, 216.500 1031.771 C 220.900 1034.664, 225.175 1037.491, 226 1038.054 C 228.766 1039.943, 235.455 1043.875, 240.500 1046.578 C 243.250 1048.051, 246.625 1050.030, 248 1050.976 C 254.672 1055.564, 276.338 1066.539, 292 1073.264 C 293.925 1074.091, 297.633 1075.720, 300.239 1076.884 C 302.846 1078.048, 305.439 1079, 306.003 1079 C 306.566 1079, 307.809 1079.397, 308.764 1079.883 C 314.160 1082.628, 325.958 1086.852, 337 1089.991 C 347.097 1092.861, 348.584 1093.310, 350.500 1094.063 C 351.600 1094.496, 353.850 1095.128, 355.500 1095.469 C 357.150 1095.810, 360.300 1096.521, 362.500 1097.047 C 387.918 1103.134, 407.980 1105.679, 440.343 1106.921 C 482.927 1108.556, 518.607 1105.296, 549.500 1096.948 C 551.700 1096.353, 555.075 1095.505, 557 1095.062 C 558.925 1094.619, 562.525 1093.591, 565 1092.778 C 567.475 1091.964, 572.875 1090.270, 577 1089.014 C 581.125 1087.758, 585.850 1086.149, 587.500 1085.438 C 589.150 1084.727, 592.737 1083.386, 595.471 1082.458 C 598.206 1081.530, 602.931 1079.648, 605.971 1078.277 C 609.012 1076.906, 613.075 1075.115, 615 1074.298 C 631.532 1067.279, 658.514 1052.848, 673 1043.276 C 674.925 1042.004, 677.338 1040.409, 678.363 1039.732 C 682.128 1037.243, 693.573 1028.516, 695.990 1026.292 C 697.359 1025.031, 698.790 1024, 699.168 1024 C 699.547 1024, 700.452 1023.438, 701.179 1022.750 C 701.905 1022.063, 705.425 1019.032, 709 1016.015 C 718.750 1007.788, 732.195 994.434, 739.220 986 C 742.656 981.875, 745.721 978.275, 746.031 978 C 746.342 977.725, 747.678 975.925, 749 974 C 750.322 972.075, 751.672 970.275, 752 970 C 752.328 969.725, 753.678 967.925, 755 966 C 756.322 964.075, 757.680 962.275, 758.018 962 C 758.356 961.725, 760.148 959.250, 762 956.500 C 763.852 953.750, 765.724 951.255, 766.159 950.956 C 766.594 950.657, 767.074 949.327, 767.225 948 C 767.555 945.102, 765.072 944.404, 749.250 942.945 C 743.612 942.425, 734.163 941.525, 728.250 940.944 C 722.337 940.364, 713.225 939.489, 708 939 C 694.423 937.730, 677.860 936.061, 668 934.968 C 663.325 934.451, 654.550 933.553, 648.500 932.975 C 642.450 932.396, 633.225 931.497, 628 930.977 C 622.775 930.457, 613.325 929.557, 607 928.977 C 574.336 925.981, 560.258 924.208, 544.500 921.107 C 535.742 919.384, 533.547 918.868, 531.500 918.052 C 530.400 917.614, 525 915.820, 519.500 914.066 C 507.877 910.358, 505.601 909.410, 493.500 903.235 C 488.550 900.708, 483.491 898.160, 482.258 897.571 C 481.025 896.982, 480.012 896.163, 480.008 895.750 C 480.004 895.337, 479.530 895, 478.955 895 C 477.964 895, 465.121 886.654, 460.708 883.143 C 446.597 871.913, 427.788 851.982, 418.962 838.905 C 416.584 835.382, 414.270 832.350, 413.819 832.167 C 413.369 831.983, 413 831.251, 413 830.539 C 413 829.827, 412.357 828.712, 411.572 828.060 C 408.698 825.675, 393 793.986, 393 790.570 C 393 789.771, 392.639 788.895, 392.198 788.622 C 391.757 788.350, 390.768 785.820, 390 783 C 389.232 780.180, 388.243 777.650, 387.802 777.378 C 387.361 777.105, 387 775.810, 387 774.500 C 387 773.190, 386.600 771.871, 386.110 771.568 C 385.621 771.266, 384.998 769.552, 384.727 767.759 C 384.455 765.967, 383.549 761.800, 382.713 758.500 C 381.263 752.770, 380.818 750.579, 377.840 734.500 C 376.985 729.883, 376.553 718.648, 376.572 701.500 C 376.599 677.007, 376.983 672.090, 380.008 657.500 C 380.464 655.300, 381.372 650.800, 382.026 647.500 C 382.679 644.200, 383.564 640.375, 383.991 639 C 384.418 637.625, 385.322 634.475, 385.998 632 C 386.674 629.525, 387.581 626.600, 388.013 625.500 C 388.445 624.400, 389.339 621.925, 390 620 C 390.661 618.075, 391.561 615.600, 392 614.500 C 392.439 613.400, 393.339 610.925, 394 609 C 397.837 597.827, 416.837 560.610, 420.037 558 C 420.374 557.725, 422.641 554.631, 425.075 551.124 C 427.509 547.617, 430.168 543.792, 430.984 542.624 C 437.426 533.408, 461.551 507.789, 470.991 500.139 C 473.461 498.138, 476.607 495.488, 477.981 494.250 C 479.355 493.012, 480.790 492, 481.168 492 C 481.547 492, 482.461 491.396, 483.199 490.658 C 485.631 488.226, 502.377 477.342, 509 473.889 C 512.575 472.025, 515.650 470.163, 515.833 469.750 C 516.017 469.337, 517.029 469, 518.083 469 C 519.138 469, 520 468.550, 520 468 C 520 467.450, 520.900 467, 522 467 C 523.100 467, 524 466.550, 524 466 C 524 465.450, 524.681 465, 525.514 465 C 526.346 465, 527.809 464.599, 528.764 464.109 C 529.719 463.620, 532.750 462.220, 535.500 461 C 538.250 459.780, 541.281 458.380, 542.236 457.891 C 543.191 457.401, 544.852 457, 545.927 457 C 547.002 457, 548.160 456.550, 548.500 456 C 548.840 455.450, 550.216 455, 551.559 455 C 552.902 455, 554 454.550, 554 454 C 554 453.450, 555.131 453, 556.514 453 C 557.896 453, 559.809 452.605, 560.764 452.123 C 563.653 450.663, 569.510 449, 571.762 449 C 572.928 449, 574.160 448.550, 574.500 448 C 574.840 447.450, 576.801 447, 578.859 447 C 580.917 447, 583.028 446.591, 583.550 446.092 C 584.073 445.593, 586.750 444.930, 589.500 444.620 C 592.250 444.309, 597.875 443.536, 602 442.901 C 607.293 442.086, 656.086 441.563, 767.838 441.123 L 926.177 440.500 928.061 438.174 C 929.097 436.894, 930.365 436.107, 930.879 436.425 C 931.403 436.749, 931.572 436.079, 931.263 434.899 C 930.961 433.742, 931.115 432.504, 931.607 432.148 C 933.107 431.060, 939 422.244, 939 421.087 C 939 420.489, 939.374 420, 939.831 420 C 940.288 420, 941.300 418.763, 942.079 417.250 C 942.859 415.738, 943.723 414.275, 944 414 C 945.308 412.700, 953 400.840, 953 400.124 C 953 399.676, 953.900 398.495, 955 397.500 C 956.100 396.505, 957.018 395.197, 957.041 394.595 C 957.063 393.993, 958.413 391.942, 960.041 390.038 C 961.668 388.134, 963 385.996, 963 385.288 C 963 384.579, 963.337 383.992, 963.750 383.981 C 964.163 383.971, 965.850 381.683, 967.500 378.897 C 969.150 376.112, 970.961 373.308, 971.524 372.666 C 972.087 372.025, 973.988 369.250, 975.748 366.500 C 977.508 363.750, 979.411 360.954, 979.978 360.288 C 980.545 359.621, 981.529 357.933, 982.165 356.538 C 982.801 355.142, 983.646 354, 984.044 354 C 984.441 354, 985.043 353.213, 985.381 352.250 C 985.950 350.628, 989.610 345.108, 991.987 342.288 C 992.549 341.621, 993.529 339.933, 994.165 338.538 C 994.801 337.142, 995.668 336, 996.093 336 C 996.518 336, 997.150 335.103, 997.498 334.006 C 997.846 332.909, 998.685 331.447, 999.363 330.756 C 1001.532 328.545, 1007 320.178, 1007 319.070 C 1007 318.481, 1007.450 318, 1008 318 C 1008.550 318, 1009 317.395, 1009 316.655 C 1009 315.915, 1009.900 314.495, 1011 313.500 C 1012.100 312.505, 1013 311.155, 1013 310.500 C 1013 309.845, 1013.900 308.495, 1015 307.500 C 1016.100 306.505, 1017.018 305.197, 1017.041 304.595 C 1017.063 303.993, 1018.413 301.942, 1020.041 300.038 C 1021.668 298.134, 1023 295.996, 1023 295.288 C 1023 294.579, 1023.395 294, 1023.879 294 C 1024.362 294, 1025.317 292.650, 1026 291 C 1026.683 289.350, 1027.638 288, 1028.121 288 C 1028.605 288, 1029.001 287.438, 1029.002 286.750 C 1029.004 286.063, 1030.353 283.925, 1032 282 C 1033.647 280.075, 1034.996 277.975, 1034.998 277.333 C 1034.999 276.692, 1035.338 276.017, 1035.750 275.833 C 1036.664 275.427, 1040.018 270.499, 1041.933 266.750 C 1042.706 265.238, 1043.712 264, 1044.169 264 C 1044.626 264, 1045 263.395, 1045 262.655 C 1045 261.915, 1045.900 260.495, 1047 259.500 C 1048.100 258.505, 1049.001 257.197, 1049.002 256.595 C 1049.004 255.993, 1050.353 253.925, 1052 252 C 1053.647 250.075, 1054.996 247.938, 1054.998 247.250 C 1054.999 246.563, 1055.374 246, 1055.831 246 C 1056.288 246, 1057.300 244.762, 1058.079 243.250 C 1058.859 241.737, 1059.762 240.275, 1060.085 240 C 1061.379 238.901, 1075 218.003, 1075 217.117 C 1075 216.594, 1075.369 216.017, 1075.819 215.833 C 1076.270 215.650, 1078.601 212.575, 1081 209 C 1083.399 205.425, 1085.730 202.350, 1086.181 202.167 C 1086.631 201.983, 1087 201.266, 1087 200.572 C 1087 199.878, 1087.900 198.495, 1089 197.500 C 1090.100 196.505, 1091 195.293, 1091 194.807 C 1091 194.321, 1093.700 189.908, 1097 185 C 1100.300 180.092, 1103 175.609, 1103 175.038 C 1103 174.467, 1103.450 174, 1104 174 C 1104.550 174, 1105 173.410, 1105 172.689 C 1105 171.967, 1105.787 170.505, 1106.750 169.439 C 1107.713 168.372, 1109.139 166.262, 1109.919 164.750 C 1110.699 163.238, 1111.712 162, 1112.169 162 C 1112.626 162, 1113 161.380, 1113 160.622 C 1113 159.865, 1113.683 158.678, 1114.518 157.985 C 1115.354 157.292, 1116.755 155.211, 1117.632 153.362 C 1118.510 151.513, 1119.627 150, 1120.114 150 C 1120.601 150, 1121 149.548, 1121 148.995 C 1121 148.442, 1141.700 116.944, 1167 79 C 1192.300 41.056, 1213 9.628, 1213 9.160 C 1213 8.693, 1213.900 7.495, 1215 6.500 C 1216.100 5.505, 1217 3.860, 1217 2.845 C 1217 1.055, 1207.238 1, 892.167 1 C 713.508 1, 567.074 1.259, 566.757 1.577 M 868.500 565.201 C 853.504 565.932, 842.229 567.026, 830 568.936 C 826.425 569.494, 821.475 570.213, 819 570.532 C 816.525 570.852, 813.600 571.510, 812.500 571.995 C 811.400 572.479, 808.925 573.104, 807 573.382 C 805.075 573.661, 801.250 574.384, 798.500 574.989 C 795.750 575.594, 792.150 576.325, 790.500 576.613 C 788.850 576.901, 786.600 577.493, 785.500 577.930 C 781.049 579.695, 776.237 581, 774.179 581 C 772.981 581, 772 581.450, 772 582 C 772 582.550, 770.677 583, 769.059 583 C 767.441 583, 765.840 583.450, 765.500 584 C 765.160 584.550, 763.784 585, 762.441 585 C 761.098 585, 760 585.450, 760 586 C 760 586.550, 758.965 587, 757.700 587 C 756.435 587, 754.973 587.358, 754.450 587.796 C 753.928 588.234, 751.700 589.163, 749.500 589.862 C 747.300 590.561, 744.600 591.492, 743.500 591.932 C 742.400 592.372, 740.375 593.182, 739 593.732 C 734.129 595.681, 730.478 597.245, 728.764 598.117 C 727.809 598.603, 726.346 599, 725.514 599 C 724.681 599, 724 599.450, 724 600 C 724 600.550, 723.100 601, 722 601 C 720.900 601, 720 601.450, 720 602 C 720 602.550, 719.100 603, 718 603 C 716.900 603, 716 603.450, 716 604 C 716 604.550, 715.100 605, 714 605 C 712.900 605, 712 605.450, 712 606 C 712 606.550, 711.415 607, 710.699 607 C 708.860 607, 704.017 609.352, 704.008 610.250 C 704.004 610.663, 703.100 611, 702 611 C 700.900 611, 700 611.450, 700 612 C 700 612.550, 699.138 613, 698.083 613 C 697.029 613, 696.017 613.349, 695.833 613.775 C 695.394 614.795, 678.260 625, 676.986 625 C 676.444 625, 676 625.374, 676 625.831 C 676 626.288, 674.763 627.301, 673.250 628.081 C 671.737 628.861, 669.628 630.288, 668.561 631.250 C 667.495 632.212, 666.070 633, 665.395 633 C 664.719 633, 664.017 633.356, 663.833 633.792 C 663.650 634.227, 660.577 636.590, 657.005 639.042 C 653.432 641.494, 649.387 644.513, 648.015 645.750 C 646.643 646.987, 645.226 648, 644.866 648 C 644.506 648, 642.701 649.412, 640.856 651.138 C 639.010 652.864, 636.375 655, 635 655.885 C 626.825 661.147, 594.451 693.839, 581 710.415 C 577.975 714.143, 573.813 719.202, 571.750 721.657 C 569.688 724.113, 568 726.512, 568 726.989 C 568 727.467, 567.438 728.463, 566.750 729.203 C 564.002 732.162, 559 738.931, 558.999 739.691 C 558.998 740.136, 557.873 741.807, 556.499 743.406 C 555.124 745.004, 554 746.621, 554 747 C 554 747.379, 552.876 748.996, 551.501 750.594 C 550.127 752.193, 549.002 753.881, 549.001 754.346 C 549.001 754.811, 548.153 756.386, 547.118 757.846 C 544.286 761.840, 540.362 768.693, 536.445 776.483 C 534.514 780.324, 532.499 783.901, 531.967 784.433 C 531.435 784.965, 531 786.609, 531 788.087 C 531 790.696, 531.211 790.793, 538.250 791.428 C 542.237 791.788, 549.325 792.511, 554 793.035 C 558.675 793.559, 567.225 794.448, 573 795.011 C 578.775 795.573, 587.550 796.468, 592.500 797 C 597.450 797.532, 606.225 798.429, 612 798.994 C 617.775 799.559, 626.550 800.445, 631.500 800.962 C 636.450 801.479, 645.450 802.396, 651.500 803 C 657.550 803.604, 666.550 804.536, 671.500 805.071 C 676.450 805.606, 685 806.476, 690.500 807.005 C 696 807.533, 704.888 808.423, 710.250 808.982 C 725.889 810.615, 737.986 811.838, 745.500 812.548 C 749.350 812.912, 752.928 813.613, 753.450 814.105 C 753.973 814.597, 756.191 815, 758.379 815 C 760.567 815, 763.740 815.420, 765.429 815.932 C 767.118 816.445, 770.413 817.345, 772.750 817.932 C 783.176 820.552, 785.607 821.251, 787.236 822.097 C 788.191 822.594, 789.852 823, 790.927 823 C 792.002 823, 793.105 823.361, 793.378 823.802 C 793.650 824.243, 796.152 825.224, 798.937 825.983 C 801.721 826.741, 804 827.730, 804 828.181 C 804 828.631, 804.590 829, 805.312 829 C 806.754 829, 812.273 831.451, 821.500 836.190 C 824.800 837.885, 828.509 839.773, 829.742 840.386 C 830.975 840.999, 831.988 841.837, 831.992 842.250 C 831.996 842.663, 832.470 843, 833.045 843 C 834.073 843, 849.023 852.704, 850 854.005 C 850.275 854.371, 851.247 855.082, 852.160 855.585 C 855.052 857.178, 868.203 869.218, 875.484 876.939 C 887.404 889.577, 888.115 890.387, 889.797 893.233 C 890.696 894.755, 891.784 896, 892.216 896 C 892.647 896, 893 896.475, 893 897.055 C 893 897.635, 894.728 900.673, 896.839 903.805 C 906.015 917.415, 912.636 930.466, 920.021 949.500 C 926.778 966.916, 929.516 985.690, 929.424 1014 C 929.350 1037.150, 928.818 1042.459, 924.917 1059 C 924.333 1061.475, 923.613 1064.967, 923.317 1066.759 C 923.021 1068.552, 922.379 1070.266, 921.890 1070.568 C 921.400 1070.871, 921 1072.190, 921 1073.500 C 921 1074.810, 920.550 1076.160, 920 1076.500 C 919.450 1076.840, 919 1077.922, 919 1078.905 C 919 1079.888, 918.374 1081.999, 917.609 1083.596 C 916.844 1085.193, 915.458 1088.300, 914.529 1090.500 C 910.912 1099.063, 902.475 1115.596, 900.782 1117.439 C 899.802 1118.505, 899 1119.967, 899 1120.689 C 899 1121.410, 898.605 1122, 898.121 1122 C 897.638 1122, 896.683 1123.350, 896 1125 C 895.317 1126.650, 894.417 1128, 894 1128 C 893.583 1128, 892.683 1129.350, 892 1131 C 891.317 1132.650, 890.384 1134, 889.927 1134 C 889.470 1134, 887.697 1136.033, 885.987 1138.519 C 882.300 1143.877, 862.206 1164.342, 856.500 1168.550 C 854.300 1170.173, 851.380 1172.513, 850.010 1173.750 C 848.641 1174.987, 847.247 1176, 846.913 1176 C 846.579 1176, 845.235 1176.928, 843.927 1178.063 C 838.433 1182.828, 820.014 1192.839, 802.784 1200.425 C 799.035 1202.076, 789.038 1205.501, 783.500 1207.032 C 766.651 1211.691, 758.089 1213.593, 746.500 1215.251 C 742.125 1215.877, 673.712 1216.398, 564.064 1216.640 C 403.148 1216.995, 388.477 1217.163, 386.814 1218.669 C 385.816 1219.571, 385 1220.845, 385 1221.500 C 385 1222.155, 384.100 1223.505, 383 1224.500 C 381.900 1225.495, 381 1226.845, 381 1227.500 C 381 1228.155, 380.100 1229.505, 379 1230.500 C 377.900 1231.495, 377 1232.845, 377 1233.500 C 377 1234.155, 376.100 1235.505, 375 1236.500 C 373.900 1237.495, 373 1238.845, 373 1239.500 C 373 1240.155, 372.100 1241.505, 371 1242.500 C 369.900 1243.495, 368.982 1244.803, 368.959 1245.405 C 368.937 1246.007, 367.587 1248.058, 365.959 1249.962 C 364.332 1251.866, 363 1253.966, 363 1254.629 C 363 1255.291, 362.644 1255.983, 362.208 1256.167 C 361.772 1256.350, 357.218 1262.800, 352.088 1270.500 C 346.958 1278.200, 341.914 1285.429, 340.880 1286.564 C 339.846 1287.700, 339 1289.093, 339 1289.659 C 339 1290.226, 338.100 1291.505, 337 1292.500 C 335.900 1293.495, 335 1294.845, 335 1295.500 C 335 1296.155, 334.100 1297.505, 333 1298.500 C 331.900 1299.495, 331 1300.845, 331 1301.500 C 331 1302.155, 330.100 1303.505, 329 1304.500 C 327.900 1305.495, 327 1306.860, 327 1307.533 C 327 1308.205, 326.278 1309.354, 325.396 1310.086 C 324.514 1310.819, 323.387 1312.336, 322.892 1313.459 C 322.397 1314.582, 320.449 1317.525, 318.562 1320 C 316.676 1322.475, 315.103 1324.915, 315.066 1325.421 C 315.030 1325.928, 314.252 1327.169, 313.339 1328.178 C 312.425 1329.188, 311.188 1330.878, 310.589 1331.934 C 309.990 1332.991, 307.588 1336.582, 305.250 1339.916 C 302.913 1343.250, 301 1346.432, 301 1346.989 C 301 1347.545, 300.656 1348, 300.236 1348 C 299.816 1348, 298.360 1349.800, 297 1352 C 295.640 1354.200, 294.184 1356, 293.764 1356 C 293.344 1356, 293 1356.590, 293 1357.311 C 293 1358.033, 292.100 1359.589, 291 1360.770 C 289.900 1361.950, 289 1363.315, 289 1363.803 C 289 1364.291, 288.100 1365.505, 287 1366.500 C 285.900 1367.495, 285 1368.845, 285 1369.500 C 285 1370.155, 284.100 1371.505, 283 1372.500 C 281.900 1373.495, 281 1374.845, 281 1375.500 C 281 1376.155, 280.100 1377.505, 279 1378.500 C 277.900 1379.495, 277 1380.845, 277 1381.500 C 277 1382.155, 276.100 1383.505, 275 1384.500 C 273.900 1385.495, 273 1386.845, 273 1387.500 C 273 1388.155, 272.100 1389.505, 271 1390.500 C 269.900 1391.495, 269 1392.845, 269 1393.500 C 269 1394.155, 268.100 1395.505, 267 1396.500 C 265.900 1397.495, 265 1398.860, 265 1399.533 C 265 1400.205, 264.278 1401.354, 263.396 1402.086 C 262.514 1402.819, 261.387 1404.336, 260.892 1405.459 C 260.397 1406.582, 258.449 1409.525, 256.562 1412 C 254.676 1414.475, 253.103 1416.993, 253.066 1417.595 C 253.030 1418.197, 252.100 1419.505, 251 1420.500 C 249.900 1421.495, 248.982 1422.803, 248.959 1423.405 C 248.937 1424.007, 247.587 1426.058, 245.959 1427.962 C 244.332 1429.866, 243 1432.004, 243 1432.712 C 243 1433.421, 242.550 1434, 242 1434 C 241.450 1434, 241 1434.605, 241 1435.345 C 241 1436.085, 240.100 1437.505, 239 1438.500 C 237.900 1439.495, 237 1440.845, 237 1441.500 C 237 1442.155, 236.100 1443.505, 235 1444.500 C 233.900 1445.495, 233 1446.845, 233 1447.500 C 233 1448.155, 232.100 1449.505, 231 1450.500 C 229.900 1451.495, 228.982 1452.803, 228.959 1453.405 C 228.937 1454.007, 227.587 1456.058, 225.959 1457.962 C 224.332 1459.866, 223 1461.966, 223 1462.629 C 223 1463.291, 222.663 1463.983, 222.250 1464.167 C 221.246 1464.613, 217.001 1470.710, 216.998 1471.710 C 216.996 1472.144, 215.647 1474.075, 214 1476 C 212.353 1477.925, 211.004 1480.063, 211.002 1480.750 C 211.001 1481.438, 210.626 1482, 210.169 1482 C 209.712 1482, 208.700 1483.237, 207.921 1484.750 C 207.141 1486.263, 206.248 1487.725, 205.936 1488 C 204.613 1489.165, 199 1497.944, 199 1498.847 C 199 1499.389, 198.663 1499.983, 198.250 1500.167 C 197.310 1500.584, 191 1508.676, 191 1509.463 C 191 1509.783, 185.938 1517.522, 179.750 1526.661 C 173.563 1535.801, 168.010 1544.113, 167.411 1545.132 C 166.812 1546.152, 165.575 1547.812, 164.661 1548.822 C 163.748 1549.831, 163 1550.927, 163 1551.255 C 163 1551.584, 160.638 1555.317, 157.750 1559.550 C 154.863 1563.783, 151.614 1568.653, 150.530 1570.373 C 149.447 1572.093, 147.760 1574.372, 146.780 1575.439 C 145.801 1576.505, 145 1577.728, 145 1578.157 C 145 1579.029, 137.200 1590.760, 135.250 1592.821 C 134.563 1593.548, 134 1594.529, 134 1595 C 134 1595.471, 133.407 1596.452, 132.683 1597.179 C 131.959 1597.905, 123.569 1610.200, 114.040 1624.500 C 104.511 1638.800, 95.840 1651.470, 94.772 1652.656 C 93.190 1654.410, 93.038 1655.203, 93.954 1656.915 L 95.080 1659.018 465.290 1658.591 C 708.653 1658.309, 839.783 1657.807, 848 1657.125 C 863.633 1655.827, 880.960 1653.663, 896.500 1651.068 C 899.800 1650.517, 904.300 1649.799, 906.500 1649.471 C 908.700 1649.144, 911.400 1648.482, 912.500 1648 C 913.600 1647.518, 916.075 1646.896, 918 1646.618 C 919.925 1646.339, 923.750 1645.611, 926.500 1645 C 929.250 1644.389, 932.967 1643.639, 934.759 1643.334 C 936.552 1643.029, 938.266 1642.379, 938.568 1641.890 C 938.871 1641.400, 940.415 1641, 942 1641 C 943.585 1641, 945.160 1640.550, 945.500 1640 C 945.840 1639.450, 947.223 1639, 948.573 1639 C 949.923 1639, 951.809 1638.594, 952.764 1638.097 C 953.719 1637.601, 956.525 1636.657, 959 1636 C 961.475 1635.343, 964.281 1634.399, 965.236 1633.903 C 966.191 1633.406, 967.852 1633, 968.927 1633 C 970.002 1633, 971.160 1632.550, 971.500 1632 C 971.840 1631.450, 973.190 1631, 974.500 1631 C 975.810 1631, 977.105 1630.639, 977.378 1630.198 C 977.650 1629.757, 980.180 1628.768, 983 1628 C 985.820 1627.232, 988.350 1626.243, 988.622 1625.802 C 988.895 1625.361, 989.907 1625, 990.871 1625 C 991.835 1625, 994.487 1624.100, 996.764 1623 C 999.041 1621.900, 1001.291 1621, 1001.764 1621 C 1002.237 1621, 1004.487 1620.100, 1006.764 1619 C 1009.041 1617.900, 1011.600 1617, 1012.452 1617 C 1013.303 1617, 1014 1616.550, 1014 1616 C 1014 1615.450, 1014.681 1615, 1015.514 1615 C 1016.346 1615, 1017.921 1614.550, 1019.014 1614 C 1020.106 1613.450, 1021.894 1612.550, 1022.986 1612 C 1024.079 1611.450, 1025.654 1611, 1026.486 1611 C 1027.319 1611, 1028 1610.550, 1028 1610 C 1028 1609.450, 1028.900 1609, 1030 1609 C 1031.100 1609, 1032 1608.550, 1032 1608 C 1032 1607.450, 1032.900 1607, 1034 1607 C 1035.100 1607, 1036 1606.550, 1036 1606 C 1036 1605.450, 1036.900 1605, 1038 1605 C 1039.100 1605, 1040 1604.550, 1040 1604 C 1040 1603.450, 1040.612 1603, 1041.360 1603 C 1043.003 1603, 1055.363 1596.809, 1055.833 1595.750 C 1056.017 1595.337, 1057.029 1595, 1058.083 1595 C 1059.138 1595, 1060 1594.605, 1060 1594.121 C 1060 1593.638, 1061.463 1592.657, 1063.250 1591.941 C 1065.037 1591.225, 1068.300 1589.446, 1070.500 1587.986 C 1072.700 1586.527, 1076.522 1584.246, 1078.994 1582.917 C 1081.466 1581.587, 1083.941 1580.146, 1084.494 1579.714 C 1087.354 1577.477, 1098.043 1571, 1098.874 1571 C 1099.401 1571, 1099.983 1570.644, 1100.167 1570.208 C 1100.350 1569.773, 1103.425 1567.410, 1107 1564.958 C 1110.575 1562.506, 1113.725 1560.253, 1114 1559.952 C 1114.275 1559.650, 1116.075 1558.322, 1118 1557 C 1119.925 1555.678, 1121.725 1554.328, 1122 1554 C 1122.275 1553.672, 1124.075 1552.322, 1126 1551 C 1127.925 1549.678, 1129.725 1548.338, 1130 1548.022 C 1130.275 1547.707, 1132.525 1545.891, 1135 1543.989 C 1137.475 1542.086, 1140.101 1539.953, 1140.837 1539.249 C 1141.572 1538.546, 1143.822 1536.743, 1145.837 1535.244 C 1147.851 1533.745, 1151.750 1530.422, 1154.500 1527.860 C 1157.250 1525.299, 1161.525 1521.533, 1164 1519.492 C 1169.272 1515.143, 1195.237 1489.092, 1199.375 1484 C 1200.938 1482.075, 1204.548 1478.025, 1207.395 1475 C 1210.242 1471.975, 1213.456 1468.311, 1214.536 1466.859 C 1215.616 1465.406, 1219.213 1460.906, 1222.528 1456.859 C 1225.844 1452.811, 1229.647 1447.925, 1230.980 1446 C 1232.313 1444.075, 1233.653 1442.275, 1233.958 1442 C 1235.252 1440.832, 1246.890 1425.075, 1248.027 1422.950 C 1248.711 1421.672, 1250.110 1419.725, 1251.135 1418.624 C 1252.161 1417.524, 1253 1416.070, 1253 1415.395 C 1253 1414.719, 1253.348 1414.017, 1253.773 1413.833 C 1254.198 1413.650, 1256.890 1409.900, 1259.755 1405.500 C 1262.621 1401.100, 1265.423 1396.956, 1265.982 1396.292 C 1266.542 1395.628, 1267 1394.428, 1267 1393.626 C 1267 1392.823, 1267.338 1392.017, 1267.750 1391.833 C 1268.689 1391.416, 1271.936 1386.090, 1272.678 1383.750 C 1272.984 1382.787, 1273.631 1382, 1274.117 1382 C 1274.602 1382, 1275 1381.540, 1275 1380.979 C 1275 1379.277, 1280.187 1371.998, 1281.029 1372.518 C 1281.460 1372.785, 1281.591 1372.153, 1281.320 1371.114 C 1281.048 1370.076, 1281.315 1368.923, 1281.913 1368.554 C 1282.511 1368.184, 1283 1367.046, 1283 1366.024 C 1283 1365.003, 1283.344 1364.017, 1283.765 1363.833 C 1284.788 1363.387, 1297.014 1338.842, 1297.006 1337.250 C 1297.003 1336.563, 1297.398 1336, 1297.883 1336 C 1298.369 1336, 1299.044 1334.987, 1299.383 1333.750 C 1299.905 1331.848, 1300.165 1331.732, 1301.065 1333 C 1301.901 1334.176, 1301.991 1334.002, 1301.481 1332.196 C 1301.075 1330.757, 1301.614 1328.226, 1302.915 1325.457 C 1304.062 1323.017, 1305 1320.609, 1305 1320.105 C 1305 1319.601, 1305.859 1317.459, 1306.909 1315.345 C 1310.089 1308.938, 1313 1302.082, 1313 1300.997 C 1313 1300.434, 1313.450 1299.079, 1314 1297.986 C 1314.550 1296.894, 1315.450 1295.106, 1316 1294.014 C 1316.550 1292.921, 1317 1291.340, 1317 1290.500 C 1317 1289.660, 1317.397 1288.191, 1317.883 1287.236 C 1318.369 1286.281, 1319.322 1284.150, 1320 1282.500 C 1320.678 1280.850, 1321.631 1278.719, 1322.117 1277.764 C 1322.603 1276.809, 1323 1275.340, 1323 1274.500 C 1323 1273.660, 1323.406 1272.191, 1323.903 1271.236 C 1324.399 1270.281, 1325.350 1267.475, 1326.017 1265 C 1326.683 1262.525, 1327.593 1259.600, 1328.039 1258.500 C 1328.906 1256.361, 1329.811 1252.504, 1330.682 1247.241 C 1330.978 1245.448, 1331.621 1243.734, 1332.110 1243.432 C 1332.600 1243.129, 1333 1241.360, 1333 1239.500 C 1333 1237.640, 1333.450 1235.840, 1334 1235.500 C 1334.550 1235.160, 1335 1233.585, 1335 1232 C 1335 1230.415, 1335.450 1228.840, 1336 1228.500 C 1336.550 1228.160, 1337 1226.135, 1337 1224 C 1337 1221.865, 1337.450 1219.840, 1338 1219.500 C 1338.550 1219.160, 1339 1217.360, 1339 1215.500 C 1339 1213.640, 1339.450 1211.840, 1340 1211.500 C 1340.550 1211.160, 1341 1208.910, 1341 1206.500 C 1341 1204.090, 1341.450 1201.840, 1342 1201.500 C 1342.550 1201.160, 1343 1198.974, 1343 1196.641 C 1343 1194.308, 1343.406 1191.973, 1343.903 1191.450 C 1344.762 1190.546, 1345.408 1186.691, 1346.575 1175.500 C 1346.862 1172.750, 1347.507 1169.600, 1348.009 1168.500 C 1348.512 1167.400, 1349.153 1163.575, 1349.436 1160 C 1349.718 1156.425, 1350.401 1149.450, 1350.953 1144.500 C 1354.794 1110.059, 1354.819 1042.325, 1351.002 1010.500 C 1348.759 991.806, 1347.679 984.444, 1344.987 969.500 C 1344.392 966.200, 1343.658 961.475, 1343.356 959 C 1343.054 956.525, 1342.400 954.072, 1341.903 953.550 C 1341.406 953.027, 1341 950.917, 1341 948.859 C 1341 946.801, 1340.550 944.840, 1340 944.500 C 1339.450 944.160, 1339 942.360, 1339 940.500 C 1339 938.640, 1338.550 936.840, 1338 936.500 C 1337.450 936.160, 1337 934.360, 1337 932.500 C 1337 930.640, 1336.550 928.840, 1336 928.500 C 1335.450 928.160, 1335 926.585, 1335 925 C 1335 923.415, 1334.550 921.840, 1334 921.500 C 1333.450 921.160, 1333 919.585, 1333 918 C 1333 916.415, 1332.550 914.840, 1332 914.500 C 1331.450 914.160, 1331 912.585, 1331 911 C 1331 909.415, 1330.550 907.840, 1330 907.500 C 1329.450 907.160, 1329 905.777, 1329 904.427 C 1329 903.077, 1328.566 901.191, 1328.035 900.236 C 1327.504 899.281, 1325.658 894.225, 1323.933 889 C 1322.208 883.775, 1320.392 879.073, 1319.898 878.550 C 1319.404 878.028, 1319 876.592, 1319 875.359 C 1319 874.126, 1318.550 872.840, 1318 872.500 C 1317.450 872.160, 1317 871.009, 1317 869.941 C 1317 868.873, 1316.648 868, 1316.218 868 C 1314.967 868, 1312.840 859.609, 1313.546 857.459 C 1314.024 856, 1313.937 855.853, 1313.204 856.882 C 1312.442 857.951, 1311.831 857.385, 1310.505 854.382 C 1309.563 852.247, 1307.893 848.636, 1306.794 846.358 C 1305.526 843.728, 1305.040 841.355, 1305.464 839.858 C 1305.984 838.020, 1305.896 837.831, 1305.065 839 C 1304.165 840.268, 1303.905 840.152, 1303.383 838.250 C 1303.044 837.013, 1302.369 836, 1301.883 836 C 1301.398 836, 1301 835.100, 1301 834 C 1301 832.900, 1300.550 832, 1300 832 C 1299.450 832, 1299 831.415, 1299 830.699 C 1299 828.860, 1296.648 824.017, 1295.750 824.008 C 1295.338 824.004, 1295 823.100, 1295 822 C 1295 820.900, 1294.550 820, 1294 820 C 1293.450 820, 1293 819.100, 1293 818 C 1293 816.900, 1292.550 816, 1292 816 C 1291.450 816, 1291 815.294, 1291 814.430 C 1291 813.567, 1289.749 810.979, 1288.219 808.680 C 1286.690 806.381, 1284.791 803.150, 1284 801.500 C 1283.209 799.850, 1281.310 796.619, 1279.781 794.320 C 1278.251 792.021, 1277 789.867, 1277 789.533 C 1277 788.136, 1252.493 752.318, 1249.952 750 C 1249.650 749.725, 1248.322 747.925, 1247 746 C 1245.678 744.075, 1244.328 742.275, 1244 742 C 1243.672 741.725, 1242.315 739.925, 1240.985 738 C 1239.655 736.075, 1236.901 732.700, 1234.865 730.500 C 1232.829 728.300, 1230.133 725.150, 1228.874 723.500 C 1221.903 714.365, 1188.592 681.229, 1176.988 671.886 C 1174.520 669.899, 1170.990 666.861, 1169.144 665.136 C 1167.299 663.411, 1165.494 662, 1165.134 662 C 1164.774 662, 1163.359 660.975, 1161.990 659.722 C 1160.620 658.468, 1157.925 656.353, 1156 655.020 C 1154.075 653.687, 1152.275 652.328, 1152 652 C 1151.725 651.672, 1149.925 650.315, 1148 648.985 C 1146.075 647.654, 1143.905 645.989, 1143.179 645.283 C 1142.452 644.577, 1141.471 644, 1141 644 C 1140.529 644, 1139.548 643.427, 1138.821 642.726 C 1138.095 642.025, 1133.900 639.108, 1129.500 636.243 C 1125.100 633.379, 1121.027 630.690, 1120.449 630.268 C 1119.413 629.511, 1117.736 628.520, 1111.613 625.046 C 1109.901 624.074, 1106.118 621.867, 1103.206 620.140 C 1100.294 618.413, 1097.482 617, 1096.956 617 C 1096.430 617, 1096 616.550, 1096 616 C 1096 615.450, 1095.138 615, 1094.083 615 C 1093.029 615, 1092.017 614.663, 1091.833 614.250 C 1091.353 613.170, 1083.071 609, 1081.405 609 C 1080.632 609, 1080 608.550, 1080 608 C 1080 607.450, 1079.100 607, 1078 607 C 1076.900 607, 1076 606.550, 1076 606 C 1076 605.450, 1075.100 605, 1074 605 C 1072.900 605, 1072 604.550, 1072 604 C 1072 603.450, 1071.332 603, 1070.516 603 C 1069.700 603, 1066.245 601.650, 1062.839 600 C 1059.432 598.350, 1056.254 597, 1055.774 597 C 1055.295 597, 1053.041 596.100, 1050.764 595 C 1048.487 593.900, 1045.835 593, 1044.871 593 C 1043.907 593, 1042.895 592.639, 1042.622 592.198 C 1042.350 591.757, 1039.848 590.776, 1037.063 590.017 C 1034.279 589.259, 1032 588.270, 1032 587.819 C 1032 587.369, 1030.650 587, 1029 587 C 1027.350 587, 1026 586.550, 1026 586 C 1026 585.450, 1024.902 585, 1023.559 585 C 1022.216 585, 1020.840 584.550, 1020.500 584 C 1020.160 583.450, 1018.777 583, 1017.427 583 C 1016.077 583, 1014.191 582.605, 1013.236 582.123 C 1010.347 580.663, 1004.490 579, 1002.238 579 C 1001.072 579, 999.840 578.550, 999.500 578 C 999.160 577.450, 997.360 577, 995.500 577 C 993.640 577, 991.869 576.598, 991.565 576.106 C 991.261 575.614, 989.322 574.962, 987.256 574.656 C 983.619 574.119, 977.887 573.034, 967.500 570.916 C 960.735 569.537, 951.321 568.193, 940.500 567.060 C 935.550 566.542, 930.375 565.887, 929 565.606 C 924.638 564.713, 884.090 564.442, 868.500 565.201" stroke="none" fill="#8b5cf6" fill-rule="evenodd"/>
</svg>